<svg width="41" height="45" viewBox="0 0 41 45" fill="none" xmlns="http://www.w3.org/2000/svg">
<path d="M27.3875 22.5003C27.3882 22.9384 27.2528 23.363 27.0047 23.7003L18.684 34.9503C18.4015 35.3332 17.9956 35.574 17.5555 35.6197C17.1155 35.6654 16.6774 35.5123 16.3375 35.194C15.9977 34.8758 15.7839 34.4185 15.7434 33.9227C15.7028 33.4269 15.8387 32.9332 16.1212 32.5503L23.5766 22.5003L16.3874 12.4503C16.2492 12.2585 16.146 12.0378 16.0837 11.8009C16.0214 11.5641 16.0013 11.3156 16.0245 11.07C16.0476 10.8243 16.1137 10.5862 16.2188 10.3694C16.324 10.1526 16.4661 9.96128 16.6371 9.80655C16.8082 9.63484 17.0089 9.50479 17.2267 9.42455C17.4445 9.34432 17.6746 9.31562 17.9027 9.34027C18.1308 9.36491 18.3519 9.44236 18.5522 9.56777C18.7525 9.69317 18.9277 9.86383 19.0667 10.0691L27.1045 21.319C27.3134 21.6661 27.413 22.082 27.3875 22.5003Z" fill="#FEBC7E"/>
</svg>
