<svg width="35" height="35" viewBox="0 0 35 35" fill="none" xmlns="http://www.w3.org/2000/svg">
<path d="M33.625 22.875C33.625 23.8254 33.2475 24.7368 32.5755 25.4088C31.9035 26.0808 30.992 26.4583 30.0417 26.4583H8.54167L1.375 33.625V4.95833C1.375 4.00797 1.75253 3.09654 2.42453 2.42453C3.09654 1.75253 4.00797 1.375 4.95833 1.375H30.0417C30.992 1.375 31.9035 1.75253 32.5755 2.42453C33.2475 3.09654 33.625 4.00797 33.625 4.95833V22.875Z" stroke="#FFB6CC" stroke-width="2" stroke-linecap="round" stroke-linejoin="round"/>
<path d="M18 14C18.5523 14 19 13.5523 19 13C19 12.4477 18.5523 12 18 12C17.4477 12 17 12.4477 17 13C17 13.5523 17.4477 14 18 14Z" stroke="#FFB6CC" stroke-width="2" stroke-linecap="round" stroke-linejoin="round"/>
<path d="M25 14C25.5523 14 26 13.5523 26 13C26 12.4477 25.5523 12 25 12C24.4477 12 24 12.4477 24 13C24 13.5523 24.4477 14 25 14Z" stroke="#FFB6CC" stroke-width="2" stroke-linecap="round" stroke-linejoin="round"/>
<path d="M11 14C11.5523 14 12 13.5523 12 13C12 12.4477 11.5523 12 11 12C10.4477 12 10 12.4477 10 13C10 13.5523 10.4477 14 11 14Z" stroke="#FFB6CC" stroke-width="2" stroke-linecap="round" stroke-linejoin="round"/>
</svg>
