<svg width="54" height="36" viewBox="0 0 54 36" fill="none" xmlns="http://www.w3.org/2000/svg">
<path d="M51.8587 8.36268L28.649 0.328357C27.3842 -0.109452 26.0196 -0.109452 24.7557 0.328357L1.54519 8.36268C-0.4135 9.04049 -0.4135 11.9589 1.54519 12.6367L5.59154 14.0373C4.70372 15.2739 4.15788 16.7823 4.1038 18.4342C3.30252 18.9517 2.73837 19.8854 2.73837 21.0001C2.73837 22.0107 3.21099 22.861 3.89162 23.4048L1.76735 34.1747C1.58263 35.1113 2.215 36 3.06621 36H7.73495C8.58698 36 9.21935 35.1113 9.03464 34.1747L6.91037 23.4048C7.591 22.861 8.06361 22.0107 8.06361 21.0001C8.06361 19.9154 7.52526 19.0079 6.76059 18.4811C6.82383 17.0729 7.46286 15.8279 8.48214 15.0386L24.7549 20.672C25.5088 20.9326 26.9549 21.2579 28.6482 20.672L51.8587 12.6377C53.8182 11.9589 53.8182 9.04143 51.8587 8.36268ZM29.4303 23.5398C27.0564 24.361 25.0336 23.9073 23.9728 23.5398L11.9061 19.3632L10.7262 30C10.7262 33.3141 17.8787 36 26.7019 36C35.5252 36 42.6777 33.3141 42.6777 30L41.4978 19.3623L29.4303 23.5398Z" fill="#FFB6CC"/>
</svg>
