<svg width="39" height="35" viewBox="0 0 39 35" fill="none" xmlns="http://www.w3.org/2000/svg">
<path d="M33.833 8.54169H5.16634C3.18732 8.54169 1.58301 10.146 1.58301 12.125V30.0417C1.58301 32.0207 3.18732 33.625 5.16634 33.625H33.833C35.812 33.625 37.4163 32.0207 37.4163 30.0417V12.125C37.4163 10.146 35.812 8.54169 33.833 8.54169Z" stroke="#FFB6CC" stroke-width="2" stroke-linecap="round" stroke-linejoin="round"/>
<path d="M26.6663 33.625V4.95833C26.6663 4.00797 26.2888 3.09654 25.6168 2.42453C24.9448 1.75253 24.0334 1.375 23.083 1.375H15.9163C14.966 1.375 14.0545 1.75253 13.3825 2.42453C12.7105 3.09654 12.333 4.00797 12.333 4.95833V33.625" stroke="#FFB6CC" stroke-width="2" stroke-linecap="round" stroke-linejoin="round"/>
</svg>
