<svg width="42" height="41" viewBox="0 0 42 41" fill="none" xmlns="http://www.w3.org/2000/svg">
<path d="M31 16.4009V7.5991C30.9996 7.21322 30.8967 6.83423 30.7017 6.50015C30.5067 6.16607 30.2264 5.88865 29.8889 5.69571L22.1111 1.2948C21.7733 1.10167 21.3901 1 21 1C20.6099 1 20.2267 1.10167 19.8889 1.2948L12.1111 5.69571C11.7736 5.88865 11.4933 6.16607 11.2983 6.50015C11.1033 6.83423 11.0004 7.21322 11 7.5991V16.4009C11.0004 16.7868 11.1033 17.1658 11.2983 17.4998C11.4933 17.8339 11.7736 18.1114 12.1111 18.3043L19.8889 22.7052C20.2267 22.8983 20.6099 23 21 23C21.3901 23 21.7733 22.8983 22.1111 22.7052L29.8889 18.3043C30.2264 18.1114 30.5067 17.8339 30.7017 17.4998C30.8967 17.1658 30.9996 16.7868 31 16.4009Z" stroke="#FFB6CC" stroke-width="2" stroke-linecap="round" stroke-linejoin="round"/>
<path d="M11 7L21 12L31 7" stroke="#FFB6CC" stroke-width="2" stroke-linecap="round" stroke-linejoin="round"/>
<path d="M21 23V12" stroke="#FFB6CC" stroke-width="2" stroke-linecap="round" stroke-linejoin="round"/>
<path d="M21 33.4009V24.5991C20.9996 24.2132 20.8967 23.8342 20.7017 23.5002C20.5067 23.1661 20.2264 22.8886 19.8889 22.6957L12.1111 18.2948C11.7733 18.1017 11.3901 18 11 18C10.6099 18 10.2267 18.1017 9.88889 18.2948L2.11111 22.6957C1.77363 22.8886 1.49331 23.1661 1.29829 23.5002C1.10327 23.8342 1.0004 24.2132 1 24.5991V33.4009C1.0004 33.7868 1.10327 34.1658 1.29829 34.4998C1.49331 34.8339 1.77363 35.1114 2.11111 35.3043L9.88889 39.7052C10.2267 39.8983 10.6099 40 11 40C11.3901 40 11.7733 39.8983 12.1111 39.7052L19.8889 35.3043C20.2264 35.1114 20.5067 34.8339 20.7017 34.4998C20.8967 34.1658 20.9996 33.7868 21 33.4009Z" stroke="#FFB6CC" stroke-width="2" stroke-linecap="round" stroke-linejoin="round"/>
<path d="M1 24L11 29L21 24" stroke="#FFB6CC" stroke-width="2" stroke-linecap="round" stroke-linejoin="round"/>
<path d="M11 40V29" stroke="#FFB6CC" stroke-width="2" stroke-linecap="round" stroke-linejoin="round"/>
<path d="M41 33.4009V24.5991C40.9996 24.2132 40.8967 23.8342 40.7017 23.5002C40.5067 23.1661 40.2264 22.8886 39.8889 22.6957L32.1111 18.2948C31.7733 18.1017 31.3901 18 31 18C30.6099 18 30.2267 18.1017 29.8889 18.2948L22.1111 22.6957C21.7736 22.8886 21.4933 23.1661 21.2983 23.5002C21.1033 23.8342 21.0004 24.2132 21 24.5991V33.4009C21.0004 33.7868 21.1033 34.1658 21.2983 34.4998C21.4933 34.8339 21.7736 35.1114 22.1111 35.3043L29.8889 39.7052C30.2267 39.8983 30.6099 40 31 40C31.3901 40 31.7733 39.8983 32.1111 39.7052L39.8889 35.3043C40.2264 35.1114 40.5067 34.8339 40.7017 34.4998C40.8967 34.1658 40.9996 33.7868 41 33.4009Z" stroke="#FFB6CC" stroke-width="2" stroke-linecap="round" stroke-linejoin="round"/>
<path d="M21 24L31 29L41 24" stroke="#FFB6CC" stroke-width="2" stroke-linecap="round" stroke-linejoin="round"/>
<path d="M31 40V29" stroke="#FFB6CC" stroke-width="2" stroke-linecap="round" stroke-linejoin="round"/>
</svg>
