<svg width="26" height="36" viewBox="0 0 26 36" fill="none" xmlns="http://www.w3.org/2000/svg">
<path d="M25.6548 25.2926V2.16651C25.6548 1.2511 25.0652 0.514648 24.3325 0.514648H6.26168C3.3417 0.514648 0.972656 3.47424 0.972656 7.1221V29.147C0.972656 32.7948 3.3417 35.7544 6.26168 35.7544H24.3325C25.0652 35.7544 25.6548 35.018 25.6548 34.1026V33.0013C25.6548 32.4851 25.4619 32.0171 25.1644 31.7142C24.933 30.6543 24.933 27.6327 25.1644 26.5728C25.4619 26.2768 25.6548 25.8088 25.6548 25.2926ZM8.02468 9.73756C8.02468 9.51042 8.17344 9.32459 8.35525 9.32459H20.0352C20.217 9.32459 20.3657 9.51042 20.3657 9.73756V11.1141C20.3657 11.3412 20.217 11.5271 20.0352 11.5271H8.35525C8.17344 11.5271 8.02468 11.3412 8.02468 11.1141V9.73756ZM8.02468 14.1425C8.02468 13.9154 8.17344 13.7296 8.35525 13.7296H20.0352C20.217 13.7296 20.3657 13.9154 20.3657 14.1425V15.5191C20.3657 15.7462 20.217 15.932 20.0352 15.932H8.35525C8.17344 15.932 8.02468 15.7462 8.02468 15.5191V14.1425ZM21.9855 31.3494H6.26168C5.28651 31.3494 4.49867 30.3652 4.49867 29.147C4.49867 27.9356 5.29202 26.9445 6.26168 26.9445H21.9855C21.8808 28.1214 21.8808 30.1725 21.9855 31.3494Z" fill="#FFB6CC"/>
</svg>
