<svg width="44" height="38" viewBox="0 0 44 38" fill="none" xmlns="http://www.w3.org/2000/svg">
<path d="M27.1429 25.7857C27.1429 26.5355 26.5355 27.1429 25.7857 27.1429H17.6429C16.893 27.1429 16.2857 26.5355 16.2857 25.7857V21.7143H0V33.9286C0 36.1 1.9 38 4.07143 38H39.3571C41.5286 38 43.4286 36.1 43.4286 33.9286V21.7143H27.1429V25.7857ZM39.3571 8.14286H32.5714V4.07143C32.5714 1.9 30.6714 0 28.5 0H14.9286C12.7571 0 10.8571 1.9 10.8571 4.07143V8.14286H4.07143C1.9 8.14286 0 10.0429 0 12.2143V19H43.4286V12.2143C43.4286 10.0429 41.5286 8.14286 39.3571 8.14286ZM27.1429 8.14286H16.2857V5.42857H27.1429V8.14286Z" fill="#FFB6CC"/>
</svg>
