<svg width="104" height="104" viewBox="0 0 104 104" fill="none" xmlns="http://www.w3.org/2000/svg">
<path d="M63.3384 25.1919C62.3936 26.1558 61.8644 27.4518 61.8644 28.8015C61.8644 30.1513 62.3936 31.4472 63.3384 32.4111L71.5889 40.6616C72.5528 41.6064 73.8487 42.1356 75.1985 42.1356C76.5482 42.1356 77.8442 41.6064 78.8081 40.6616L98.2482 21.2214C100.841 26.9513 101.626 33.3353 100.499 39.5227C99.3715 45.7101 96.3853 51.407 91.9381 55.8542C87.4909 60.3014 81.794 63.2876 75.6066 64.415C69.4192 65.5424 63.0352 64.7573 57.3053 62.1644L21.6735 97.7961C19.6221 99.8475 16.8398 101 13.9387 101C11.0376 101 8.25527 99.8475 6.20387 97.7961C4.15247 95.7447 3 92.9624 3 90.0613C3 87.1602 4.15247 84.3779 6.20387 82.3265L41.8356 46.6947C39.2427 40.9648 38.4576 34.5808 39.585 28.3934C40.7124 22.206 43.6986 16.5091 48.1458 12.0619C52.593 7.61475 58.2899 4.62849 64.4773 3.50113C70.6647 2.37378 77.0487 3.15886 82.7786 5.75175L63.39 25.1404L63.3384 25.1919Z" stroke="#FFB6CC" stroke-width="6" stroke-linecap="round" stroke-linejoin="round"/>
</svg>
